<?xml version="1.0" standalone="no"?><!DOCTYPE svg PUBLIC "-//W3C//DTD SVG 1.1//EN" "http://www.w3.org/Graphics/SVG/1.1/DTD/svg11.dtd"><svg t="1628933503168" class="icon" viewBox="0 0 1024 1024" version="1.1" xmlns="http://www.w3.org/2000/svg" p-id="3221" xmlns:xlink="http://www.w3.org/1999/xlink" width="200" height="200"><defs><style type="text/css"></style></defs><path d="M895.644 837.818L570.731 512.905l324.913-324.913c16.291-16.291 16.291-42.667 0-58.958-16.29-16.29-42.666-16.29-58.957 0L511.774 453.947 186.86 129.034c-16.291-16.29-42.667-16.29-58.958 0-16.29 16.291-16.29 42.667 0 58.958l324.913 324.913L127.903 837.69c-16.29 16.29-16.29 42.667 0 58.957 16.29 16.291 42.667 16.291 58.958 0l324.913-324.913 324.913 324.913c16.29 16.291 42.667 16.291 58.957 0 16.162-16.29 16.162-42.666 0-58.828z m0 0" fill="#8a8a8a" p-id="3222"></path></svg>