<?xml version="1.0" standalone="no"?><!DOCTYPE svg PUBLIC "-//W3C//DTD SVG 1.1//EN" "http://www.w3.org/Graphics/SVG/1.1/DTD/svg11.dtd"><svg t="1628867827902" class="icon" viewBox="0 0 1591 1024" version="1.1" xmlns="http://www.w3.org/2000/svg" p-id="1430" xmlns:xlink="http://www.w3.org/1999/xlink" width="310.7421875" height="200"><defs><style type="text/css"></style></defs><path d="M579.18296 763.817018c30.829998-27.872998 55.175996-48.919997 78.269995-71.103995 221.047985-212.855985 442.43697-425.484971 662.573955-639.136957 53.469996-51.649996 109.215993-77.701995 174.516988-23.663998 54.834996 45.165997 46.643997 108.077993-21.614999 174.062988-260.865982 252.559983-522.640964 504.892965-784.529946 756.656948-82.139994 78.953995-126.735991 79.408995-207.395986 2.617C338.794977 827.526013 198.179986 689.983023 55.858996 554.260032 2.162 503.065036-25.028998 449.254039 30.830998 386.114044c46.870997-52.900996 112.286992-45.164997 180.545988 20.363998 121.956992 117.178992 242.776983 235.722984 367.805974 357.339976z" fill="#cdcdcd" p-id="1431"></path></svg>