<?xml version="1.0" standalone="no"?><!DOCTYPE svg PUBLIC "-//W3C//DTD SVG 1.1//EN" "http://www.w3.org/Graphics/SVG/1.1/DTD/svg11.dtd"><svg t="1628933542943" class="icon" viewBox="0 0 1024 1024" version="1.1" xmlns="http://www.w3.org/2000/svg" p-id="1139" xmlns:xlink="http://www.w3.org/1999/xlink" width="200" height="200"><defs><style type="text/css"></style></defs><path d="M982.528 217.6v375.808c0 9.728-6.144 17.408-14.336 20.48-0.512 0-1.536 0.512-2.048 0.512-0.512 0-1.536 0.512-2.048 0.512H114.688L291.84 792.064c4.096 4.096 6.656 8.704 6.656 14.848 0 12.8-8.704 21.504-21.504 21.504-6.656 0-10.752-2.048-14.848-6.656L48.128 608.768c-4.096-4.096-6.656-8.704-6.656-14.848s2.048-10.752 6.656-14.848l213.504-213.504c4.096-4.096 8.704-6.656 14.848-6.656 12.8 0 21.504 8.704 21.504 21.504 0 6.656-2.048 10.752-6.656 14.848l-177.152 177.152h823.808V217.6c0-12.288 9.728-22.016 22.016-22.016 6.144 0 11.776 2.56 15.36 6.656 4.608 3.584 7.168 9.216 7.168 15.36z" p-id="1140" fill="#8a8a8a"></path></svg>