<?xml version="1.0" standalone="no"?><!DOCTYPE svg PUBLIC "-//W3C//DTD SVG 1.1//EN" "http://www.w3.org/Graphics/SVG/1.1/DTD/svg11.dtd"><svg t="1628934133550" class="icon" viewBox="0 0 1024 1024" version="1.1" xmlns="http://www.w3.org/2000/svg" p-id="4708" xmlns:xlink="http://www.w3.org/1999/xlink" width="200" height="200"><defs><style type="text/css"></style></defs><path d="M232.106667 569.6L373.76 682.666667a27.733333 27.733333 0 0 0 44.8-21.333334v-226.56a27.733333 27.733333 0 0 0-44.8-21.333333l-141.653333 113.066667a27.306667 27.306667 0 0 0 0 43.093333zM418.56 505.6h341.333333a42.666667 42.666667 0 0 1 42.666667 42.666667 42.666667 42.666667 0 0 1-42.666667 42.666666h-341.333333v-85.333333z" p-id="4709" fill="#8a8a8a"></path><path d="M717.226667 590.506667m0-42.666667l0-170.666667q0-42.666667 42.666666-42.666666l0 0q42.666667 0 42.666667 42.666666l0 170.666667q0 42.666667-42.666667 42.666667l0 0q-42.666667 0-42.666666-42.666667Z" p-id="4710" fill="#8a8a8a"></path></svg>